REM DIRINDEX 1\2,1\3\7,1\3\8,1\4\9,1\4\10,1\4\11,1\5\12,1\5\13,1\5\14,1\6\15,1\6\16,1\6\17
REM DIRNAME "folder01","folder02","folder03","folder04","folder05","folder06","folder07","folder08","folder09","folder10","folder11","folder12","folder13","folder14","folder15","folder16","folder17"
TITLE ""
FILE "2Q_j_1501-1513.mp3" MP3
  TRACK 01 AUDIO
    TITLE "0:"
    INDEX 01 00:00:00
  TRACK 02 AUDIO
    TITLE "2:cjc174_0720"
    INDEX 01 00:00:08
  TRACK 03 AUDIO
    TITLE "0:"
    INDEX 01 00:03:36
  TRACK 04 AUDIO
    TITLE "2:cjc174_0721"
    INDEX 01 00:04:08
  TRACK 05 AUDIO
    TITLE "0:"
    INDEX 01 00:05:58
  TRACK 06 AUDIO
    TITLE "9:cjc174_0722"
    INDEX 01 00:06:32
  TRACK 07 AUDIO
    TITLE "0:"
    INDEX 01 00:07:55
  TRACK 08 AUDIO
    TITLE "10:cjc174_0723"
    INDEX 01 00:08:25
  TRACK 09 AUDIO
    TITLE "0:"
    INDEX 01 00:10:52
  TRACK 10 AUDIO
    TITLE "11:cjc174_0724"
    INDEX 01 00:11:20
  TRACK 11 AUDIO
    TITLE "0:"
    INDEX 01 00:17:22
  TRACK 12 AUDIO
    TITLE "9:cjc174_0725"
    INDEX 01 00:17:70
  TRACK 13 AUDIO
    TITLE "0:"
    INDEX 01 00:19:33
  TRACK 14 AUDIO
    TITLE "10:cjc174_0726"
    INDEX 01 00:20:07
  TRACK 15 AUDIO
    TITLE "0:"
    INDEX 01 00:22:00
  TRACK 16 AUDIO
    TITLE "11:cjc174_0727"
    INDEX 01 00:22:45
  TRACK 17 AUDIO
    TITLE "0:"
    INDEX 01 00:24:60
  TRACK 18 AUDIO
    TITLE "9:cjc174_0728"
    INDEX 01 00:25:38
  TRACK 19 AUDIO
    TITLE "0:"
    INDEX 01 00:26:57
  TRACK 20 AUDIO
    TITLE "10:cjc174_0729"
    INDEX 01 00:27:27
  TRACK 21 AUDIO
    TITLE "0:"
    INDEX 01 00:31:23
  TRACK 22 AUDIO
    TITLE "11:cjc174_0730"
    INDEX 01 00:31:68
  TRACK 23 AUDIO
    TITLE "0:"
    INDEX 01 00:34:62
  TRACK 24 AUDIO
    TITLE "9:cjc174_0731"
    INDEX 01 00:35:38
  TRACK 25 AUDIO
    TITLE "0:"
    INDEX 01 00:37:33
  TRACK 26 AUDIO
    TITLE "10:cjc174_0732"
    INDEX 01 00:38:05
  TRACK 27 AUDIO
    TITLE "0:"
    INDEX 01 00:39:73
  TRACK 28 AUDIO
    TITLE "11:cjc174_0733"
    INDEX 01 00:40:45
  TRACK 29 AUDIO
    TITLE "0:"
    INDEX 01 00:45:17
  TRACK 30 AUDIO
    TITLE "9:cjc174_0734"
    INDEX 01 00:45:72
  TRACK 31 AUDIO
    TITLE "0:"
    INDEX 01 00:47:55
  TRACK 32 AUDIO
    TITLE "10:cjc174_0735"
    INDEX 01 00:48:25
  TRACK 33 AUDIO
    TITLE "0:"
    INDEX 01 00:50:40
  TRACK 34 AUDIO
    TITLE "11:cjc174_0736"
    INDEX 01 00:51:10
  TRACK 35 AUDIO
    TITLE "0:"
    INDEX 01 00:54:37
  TRACK 36 AUDIO
    TITLE "9:cjc174_0737"
    INDEX 01 00:55:09
  TRACK 37 AUDIO
    TITLE "0:"
    INDEX 01 00:56:56
  TRACK 38 AUDIO
    TITLE "10:cjc174_0738"
    INDEX 01 00:57:26
  TRACK 39 AUDIO
    TITLE "0:"
    INDEX 01 01:00:24
  TRACK 40 AUDIO
    TITLE "11:cjc174_0739"
    INDEX 01 01:00:69
  TRACK 41 AUDIO
    TITLE "0:"
    INDEX 01 01:04:61
  TRACK 42 AUDIO
    TITLE "9:cjc174_0740"
    INDEX 01 01:05:33
  TRACK 43 AUDIO
    TITLE "0:"
    INDEX 01 01:07:50
  TRACK 44 AUDIO
    TITLE "10:cjc174_0741"
    INDEX 01 01:08:20
  TRACK 45 AUDIO
    TITLE "0:"
    INDEX 01 01:10:17
  TRACK 46 AUDIO
    TITLE "11:cjc174_0742"
    INDEX 01 01:10:62
  TRACK 47 AUDIO
    TITLE "0:"
    INDEX 01 01:13:21
  TRACK 48 AUDIO
    TITLE "9:cjc174_0743"
    INDEX 01 01:13:66
  TRACK 49 AUDIO
    TITLE "0:"
    INDEX 01 01:15:41
  TRACK 50 AUDIO
    TITLE "10:cjc174_0744"
    INDEX 01 01:16:12
  TRACK 51 AUDIO
    TITLE "0:"
    INDEX 01 01:20:05
  TRACK 52 AUDIO
    TITLE "11:cjc174_0745"
    INDEX 01 01:20:49
  TRACK 53 AUDIO
    TITLE "0:"
    INDEX 01 01:24:19
  TRACK 54 AUDIO
    TITLE "9:cjc174_0746"
    INDEX 01 01:24:66
  TRACK 55 AUDIO
    TITLE "0:"
    INDEX 01 01:26:37
  TRACK 56 AUDIO
    TITLE "10:cjc174_0747"
    INDEX 01 01:27:07
  TRACK 57 AUDIO
    TITLE "0:"
    INDEX 01 01:29:40
  TRACK 58 AUDIO
    TITLE "11:cjc174_0748"
    INDEX 01 01:30:10
  TRACK 59 AUDIO
    TITLE "0:"
    INDEX 01 01:33:06
  TRACK 60 AUDIO
    TITLE "9:cjc174_0749"
    INDEX 01 01:33:61
  TRACK 61 AUDIO
    TITLE "0:"
    INDEX 01 01:35:25
  TRACK 62 AUDIO
    TITLE "10:cjc174_0750"
    INDEX 01 01:35:70
  TRACK 63 AUDIO
    TITLE "0:"
    INDEX 01 01:37:67
  TRACK 64 AUDIO
    TITLE "11:cjc174_0751"
    INDEX 01 01:38:35
  TRACK 65 AUDIO
    TITLE "0:"
    INDEX 01 01:42:21
  TRACK 66 AUDIO
    TITLE "9:cjc174_0752"
    INDEX 01 01:42:70
  TRACK 67 AUDIO
    TITLE "0:"
    INDEX 01 01:44:29
  TRACK 68 AUDIO
    TITLE "10:cjc174_0753"
    INDEX 01 01:45:07
  TRACK 69 AUDIO
    TITLE "0:"
    INDEX 01 01:46:42
  TRACK 70 AUDIO
    TITLE "11:cjc174_0754"
    INDEX 01 01:47:12
  TRACK 71 AUDIO
    TITLE "0:"
    INDEX 01 01:51:67
  TRACK 72 AUDIO
    TITLE "9:cjc174_0755"
    INDEX 01 01:52:37
  TRACK 73 AUDIO
    TITLE "0:"
    INDEX 01 01:54:06
  TRACK 74 AUDIO
    TITLE "10:cjc174_0756"
    INDEX 01 01:54:53
  TRACK 75 AUDIO
    TITLE "0:"
    INDEX 01 01:58:37
  TRACK 76 AUDIO
    TITLE "11:cjc174_0757"
    INDEX 01 01:59:07
  TRACK 77 AUDIO
    TITLE "0:"
    INDEX 01 02:02:74
  TRACK 78 AUDIO
    TITLE "9:cjc174_0758"
    INDEX 01 02:03:46
  TRACK 79 AUDIO
    TITLE "0:"
    INDEX 01 02:05:41
  TRACK 80 AUDIO
    TITLE "10:cjc174_0759"
    INDEX 01 02:06:11
  TRACK 81 AUDIO
    TITLE "0:"
    INDEX 01 02:08:53
  TRACK 82 AUDIO
    TITLE "11:cjc174_0760"
    INDEX 01 02:09:23
  TRACK 83 AUDIO
    TITLE "0:"
    INDEX 01 02:12:45
